<svg width="19" height="15" viewBox="0 0 19 15" fill="none" xmlns="http://www.w3.org/2000/svg">
<path fill-rule="evenodd" clip-rule="evenodd" d="M12.3158 1.05129C12.4404 1.09276 12.5557 1.15838 12.655 1.24441C12.7542 1.33043 12.8356 1.43517 12.8944 1.55265C12.9531 1.67012 12.9882 1.79803 12.9975 1.92905C13.0069 2.06008 12.9903 2.19167 12.9488 2.31629L8.94879 14.3163C8.86498 14.568 8.68462 14.7761 8.44738 14.8948C8.21015 15.0135 7.93548 15.0331 7.68379 14.9493C7.4321 14.8655 7.22401 14.6851 7.1053 14.4479C6.98659 14.2107 6.96698 13.936 7.05079 13.6843L11.0508 1.68429C11.0923 1.55965 11.1579 1.4444 11.2439 1.34512C11.3299 1.24585 11.4347 1.1645 11.5521 1.10571C11.6696 1.04693 11.7975 1.01187 11.9286 1.00253C12.0596 0.993192 12.1912 1.00976 12.3158 1.05129V1.05129ZM5.70679 4.29329C5.89426 4.48082 5.99957 4.73512 5.99957 5.00029C5.99957 5.26545 5.89426 5.51976 5.70679 5.70729L3.41379 8.00029L5.70679 10.2933C5.8023 10.3855 5.87848 10.4959 5.93089 10.6179C5.9833 10.7399 6.01088 10.8711 6.01204 11.0039C6.01319 11.1367 5.98789 11.2683 5.93761 11.3912C5.88733 11.5141 5.81307 11.6258 5.71918 11.7197C5.62529 11.8136 5.51364 11.8878 5.39074 11.9381C5.26784 11.9884 5.13616 12.0137 5.00339 12.0125C4.87061 12.0114 4.73939 11.9838 4.61738 11.9314C4.49538 11.879 4.38503 11.8028 4.29279 11.7073L1.29279 8.70729C1.10532 8.51976 1 8.26545 1 8.00029C1 7.73512 1.10532 7.48082 1.29279 7.29329L4.29279 4.29329C4.48031 4.10582 4.73462 4.0005 4.99979 4.0005C5.26495 4.0005 5.51926 4.10582 5.70679 4.29329V4.29329ZM14.2928 4.29329C14.4803 4.10582 14.7346 4.0005 14.9998 4.0005C15.265 4.0005 15.5193 4.10582 15.7068 4.29329L18.7068 7.29329C18.8943 7.48082 18.9996 7.73512 18.9996 8.00029C18.9996 8.26545 18.8943 8.51976 18.7068 8.70729L15.7068 11.7073C15.6145 11.8028 15.5042 11.879 15.3822 11.9314C15.2602 11.9838 15.129 12.0114 14.9962 12.0125C14.8634 12.0137 14.7317 11.9884 14.6088 11.9381C14.4859 11.8878 14.3743 11.8136 14.2804 11.7197C14.1865 11.6258 14.1122 11.5141 14.062 11.3912C14.0117 11.2683 13.9864 11.1367 13.9875 11.0039C13.9887 10.8711 14.0163 10.7399 14.0687 10.6179C14.1211 10.4959 14.1973 10.3855 14.2928 10.2933L16.5858 8.00029L14.2928 5.70729C14.1053 5.51976 14 5.26545 14 5.00029C14 4.73512 14.1053 4.48082 14.2928 4.29329V4.29329Z" fill="#787E29"/>
<path fill-rule="evenodd" clip-rule="evenodd" d="M11.3158 0.0512892C11.4404 0.0927611 11.5557 0.158384 11.655 0.244408C11.7542 0.330433 11.8356 0.435174 11.8944 0.552648C11.9531 0.670122 11.9882 0.798026 11.9975 0.929054C12.0069 1.06008 11.9903 1.19167 11.9488 1.31629L7.94879 13.3163C7.86498 13.568 7.68462 13.7761 7.44738 13.8948C7.21015 14.0135 6.93548 14.0331 6.68379 13.9493C6.4321 13.8655 6.22401 13.6851 6.1053 13.4479C5.98659 13.2107 5.96698 12.936 6.05079 12.6843L10.0508 0.684289C10.0923 0.559647 10.1579 0.444397 10.2439 0.345124C10.3299 0.24585 10.4347 0.164498 10.5521 0.105714C10.6696 0.0469311 10.7975 0.0118686 10.9286 0.00253018C11.0596 -0.00680828 11.1912 0.0097603 11.3158 0.0512892V0.0512892ZM4.70679 3.29329C4.89426 3.48082 4.99957 3.73512 4.99957 4.00029C4.99957 4.26545 4.89426 4.51976 4.70679 4.70729L2.41379 7.00029L4.70679 9.29329C4.8023 9.38554 4.87848 9.49588 4.93089 9.61788C4.9833 9.73989 5.01088 9.87111 5.01204 10.0039C5.01319 10.1367 4.98789 10.2683 4.93761 10.3912C4.88733 10.5141 4.81307 10.6258 4.71918 10.7197C4.62529 10.8136 4.51364 10.8878 4.39074 10.9381C4.26784 10.9884 4.13616 11.0137 4.00339 11.0125C3.87061 11.0114 3.73939 10.9838 3.61738 10.9314C3.49538 10.879 3.38503 10.8028 3.29279 10.7073L0.292786 7.70729C0.105315 7.51976 0 7.26545 0 7.00029C0 6.73512 0.105315 6.48082 0.292786 6.29329L3.29279 3.29329C3.48031 3.10582 3.73462 3.0005 3.99979 3.0005C4.26495 3.0005 4.51926 3.10582 4.70679 3.29329V3.29329ZM13.2928 3.29329C13.4803 3.10582 13.7346 3.0005 13.9998 3.0005C14.265 3.0005 14.5193 3.10582 14.7068 3.29329L17.7068 6.29329C17.8943 6.48082 17.9996 6.73512 17.9996 7.00029C17.9996 7.26545 17.8943 7.51976 17.7068 7.70729L14.7068 10.7073C14.6145 10.8028 14.5042 10.879 14.3822 10.9314C14.2602 10.9838 14.129 11.0114 13.9962 11.0125C13.8634 11.0137 13.7317 10.9884 13.6088 10.9381C13.4859 10.8878 13.3743 10.8136 13.2804 10.7197C13.1865 10.6258 13.1122 10.5141 13.062 10.3912C13.0117 10.2683 12.9864 10.1367 12.9875 10.0039C12.9887 9.87111 13.0163 9.73989 13.0687 9.61788C13.1211 9.49588 13.1973 9.38554 13.2928 9.29329L15.5858 7.00029L13.2928 4.70729C13.1053 4.51976 13 4.26545 13 4.00029C13 3.73512 13.1053 3.48082 13.2928 3.29329V3.29329Z" fill="#333333"/>
</svg>
